HIERARCHY
ROOT Hips
{
	OFFSET -0.179506 -22.333345 2.821913
	CHANNELS 6 Xposition Yposition Zposition Zrotation Yrotation Xrotation 
	JOINT LeftUpLeg
	{
		OFFSET 6.951974 -9.140623 -0.681533
		CHANNELS 3 Zrotation Yrotation Xrotation
		JOINT LeftLeg
		{
			OFFSET 3.427654 -37.519855 -0.449580
			CHANNELS 3 Zrotation Yrotation Xrotation
			JOINT LeftFoot
			{
				OFFSET -1.359570 -39.796059 -4.369333
				CHANNELS 3 Zrotation Yrotation Xrotation
				JOINT LeftToe
				{
					OFFSET 2.635814 -5.579078 11.928840
					CHANNELS 3 Zrotation Yrotation Xrotation
					End Site
					{
						OFFSET 0.000000 0.000000 0.000000
					}
				}
			}
		}
	}
	JOINT RightUpLeg
	{
		OFFSET -6.767048 -9.052170 -0.431982
		CHANNELS 3 Zrotation Yrotation Xrotation
		JOINT RightLeg
		{
			OFFSET -3.829005 -38.256897 -0.885003
			CHANNELS 3 Zrotation Yrotation Xrotation
			JOINT RightFoot
			{
				OFFSET 1.577377 -39.841461 -4.231180
				CHANNELS 3 Zrotation Yrotation Xrotation
				JOINT RightToe
				{
					OFFSET -2.537174 -4.814398 12.334795
					CHANNELS 3 Zrotation Yrotation Xrotation
					End Site
					{
						OFFSET 0.000000 0.000000 0.000000
					}
				}
			}
		}
	}
	JOINT Spine
	{
		OFFSET -0.253288 10.896323 -2.669631
		CHANNELS 3 Zrotation Yrotation Xrotation
		JOINT Spine1
		{
			OFFSET 0.548704 13.518043 0.109247
			CHANNELS 3 Zrotation Yrotation Xrotation
			JOINT Spine2
			{
				OFFSET 0.145701 5.292222 2.542457
				CHANNELS 3 Zrotation Yrotation Xrotation
				JOINT Neck
				{
					OFFSET -0.277840 21.387037 -4.285703
					CHANNELS 3 Zrotation Yrotation Xrotation
					JOINT Head
					{
						OFFSET 0.515184 6.496960 5.134897
						CHANNELS 3 Zrotation Yrotation Xrotation
						End Site
						{
							OFFSET 0.000000 0.000000 0.000000
						}
					}
				}
				JOINT LeftShoulder
				{
					OFFSET 7.884473 12.174932 -3.408961
					CHANNELS 3 Zrotation Yrotation Xrotation
					JOINT LeftArm
					{
						OFFSET 9.097692 3.046888 -0.886815
						CHANNELS 3 Zrotation Yrotation Xrotation
						JOINT LeftForeArm
						{
							OFFSET 25.961220 -1.277207 -2.745643
							CHANNELS 3 Zrotation Yrotation Xrotation
							JOINT LeftHand
							{
								OFFSET 24.923361 0.898606 -0.117091
								CHANNELS 3 Zrotation Yrotation Xrotation
								End Site
								{
									OFFSET 0.000000 0.000000 0.000000
								}
							}
						}
					}
				}
				JOINT RightShoulder
				{
					OFFSET -8.175920 11.883285 -3.861528
					CHANNELS 3 Zrotation Yrotation Xrotation
					JOINT RightArm
					{
						OFFSET -9.601238 3.255117 -0.914307
						CHANNELS 3 Zrotation Yrotation Xrotation
						JOINT RightForeArm
						{
							OFFSET -25.374195 -1.332924 -2.140099
							CHANNELS 3 Zrotation Yrotation Xrotation
							JOINT RightHand
							{
								OFFSET -25.529810 0.777228 -0.555919
								CHANNELS 3 Zrotation Yrotation Xrotation
								End Site
								{
									OFFSET 0.000000 0.000000 0.000000
								}
							}
						}
					}
				}
			}
		}
	}
}
MOTION
Frames: 13
Frame Time: 0.033333
-101.760483 223.753052 92.763557 125.909785 3.186752 86.883141 18.376312 12.756124 -10.406518 -6.733255 16.893011 38.687575 5.638272 14.959877 -25.395824 nan nan nan -22.405594 -10.512042 -4.341450 1.916806 -15.881900 28.472916 6.909102 -1.045858 -15.450300 nan nan nan -3.257282 4.329669 3.200487 5.377275 -4.122731 9.503114 1.168264 -0.579251 -6.855207 2.603499 32.414476 6.232950 -9.856112 21.550924 6.164576 -1.029168 -4.702162 0.482818 -40.299981 -14.241571 10.183334 151.813248 -70.492724 -125.017027 -1.227019 -14.587803 -26.735535 9.488437 21.482297 -3.407208 62.370609 37.654172 32.771180 -178.051642 64.870003 -165.105804 -7.741457 10.629620 -30.535792 
-101.726044 223.617172 92.718376 125.752359 3.303437 86.969460 18.537595 12.698904 -10.638745 -6.504799 17.005021 38.963336 5.796735 14.951551 -25.303472 nan nan nan -22.450908 -10.013498 -4.551802 2.249708 -15.052035 28.552598 6.883247 -0.316085 -15.275892 nan nan nan -3.270394 4.351033 3.175154 5.390311 -4.063991 9.615295 1.209786 -0.344295 -7.039929 2.566921 32.404504 6.474915 -9.756219 21.360469 6.347590 -1.125073 -5.122372 0.380157 -40.264500 -13.965521 10.164432 148.148484 -70.321097 -121.390075 -1.831550 -14.799394 -26.684402 9.060945 21.400595 -3.738342 62.838727 37.560823 33.161792 -177.726323 64.946072 -164.523986 -7.345296 10.552409 -30.504452 
-101.648354 223.475067 92.682259 125.500526 3.467153 86.909622 18.829742 12.791901 -10.662090 -6.320572 17.047564 39.203447 5.961957 14.944788 -25.156216 nan nan nan -22.500016 -9.531368 -4.680260 2.617633 -13.996634 28.750860 6.698684 0.630023 -15.199010 nan nan nan -3.185563 4.410334 3.132784 5.399668 -4.075395 9.871892 1.173307 -0.154119 -7.201804 2.818859 32.494974 6.921984 -9.827171 21.199585 6.465741 -1.143057 -5.427224 0.393900 -40.254567 -13.715887 9.934423 144.423890 -69.925920 -118.393657 -2.610907 -14.669721 -27.213937 8.906202 21.606062 -3.700908 62.743103 37.789913 33.064636 -177.193377 65.126957 -163.899542 -7.001668 10.401612 -30.207403 
-101.528778 223.331741 92.659546 125.177206 3.583624 86.828443 19.146407 12.919471 -10.570911 -6.223028 17.073315 39.400727 5.989079 15.012941 -24.823639 nan nan nan -22.580862 -9.134280 -4.830930 3.047656 -12.652649 28.965856 6.560477 1.412591 -15.309334 nan nan nan -3.054712 4.470313 3.126970 5.300525 -4.076944 10.111128 1.039294 -0.123229 -7.294979 3.082680 32.625730 7.198381 -9.939617 21.123273 6.426940 -1.249501 -5.361892 0.442899 -39.452294 -13.378191 9.454140 143.148243 -69.752192 -117.466796 -1.978835 -13.786152 -26.627342 9.179781 21.850390 -3.440561 62.501306 38.278853 32.894356 -177.069801 65.317940 -163.887932 -7.076794 10.238707 -29.716550 
-101.385147 223.178711 92.639091 124.795545 3.722450 86.756565 19.491062 13.061683 -10.421614 -6.110713 17.072261 39.527472 5.924935 15.070289 -24.467582 nan nan nan -22.572575 -8.601138 -5.053187 3.502137 -11.202664 29.131802 6.607909 2.020944 -15.574606 nan nan nan -2.927563 4.515689 3.142386 5.208237 -3.911231 10.371514 0.953055 -0.175554 -7.408644 3.301618 32.822216 7.302404 -10.046433 20.991142 6.418095 -1.292654 -5.165620 0.391822 -38.889447 -12.912436 9.024469 142.100643 -69.669866 -115.745825 -0.879856 -13.134771 -25.342477 9.350258 21.953244 -3.331786 62.601824 38.624083 33.010377 -176.800829 65.646585 -163.340432 -7.531602 10.551749 -29.884866 
-101.266998 222.971970 92.607697 124.434026 3.855364 86.679480 19.774425 13.274511 -10.378648 -5.927375 16.974140 39.817013 5.881961 14.988400 -24.273066 nan nan nan -22.599118 -8.085158 -5.286824 3.929509 -9.801329 29.223961 6.853884 2.748877 -15.914490 nan nan nan -2.728491 4.446885 3.411573 5.294809 -3.782276 10.529108 0.853516 -0.499111 -7.314092 2.541339 33.567722 6.401857 -10.112116 20.926977 6.446379 -1.487181 -4.033871 -0.154665 -38.590607 -12.859681 8.649741 139.996170 -69.405708 -114.214230 -1.702152 -12.851837 -24.597267 9.138299 21.688768 -3.230447 63.366830 40.025908 33.800033 -176.750076 66.500026 -162.867422 -7.631891 10.674834 -28.800904 
-101.154640 222.772263 92.580513 124.175129 3.913937 86.634521 19.977650 13.307571 -10.340710 -5.859978 16.987569 39.915887 5.872662 15.003512 -24.102157 nan nan nan -22.737310 -7.614997 -5.450297 4.335736 -8.508493 29.113472 7.232302 3.479539 -16.354522 nan nan nan -2.606206 4.342932 3.651205 5.244909 -3.744124 10.413908 0.720142 -0.651495 -7.088533 2.234341 33.989254 5.729806 -10.121269 21.031569 6.638350 -1.598244 -2.912544 -0.448978 -38.379867 -13.177650 8.394758 137.402343 -69.320258 -113.358374 -2.188500 -12.076805 -22.410380 9.277835 21.409648 -2.811074 63.606591 41.466370 34.072591 -177.191546 67.164448 -163.657602 -6.991540 10.581128 -26.444122 
-101.074295 222.585815 92.551018 123.973247 3.868630 86.590224 20.039326 13.084696 -10.239856 -5.874004 17.049965 39.796355 6.255077 15.394424 -23.861845 nan nan nan -22.974774 -7.270695 -5.611849 4.761203 -7.097535 29.002093 7.123124 3.737392 -16.686436 nan nan nan -2.646483 4.186932 4.047196 5.093726 -3.734008 9.433642 0.504440 -0.529854 -6.249371 2.052584 33.343496 5.023090 -9.963002 21.882785 6.879671 -1.489011 -1.964215 -0.750926 -38.789861 -13.892220 8.562950 137.176969 -69.615785 -116.658883 1.612416 -8.991837 -27.541298 9.949917 21.327484 -2.223458 62.776826 42.505947 33.829490 -177.402471 66.887415 -165.765001 -6.386137 10.386089 -27.834521 
-100.980957 222.373138 92.525589 123.650066 3.930206 86.730809 20.184522 13.166358 -10.353278 -5.666505 17.130593 39.864439 6.271853 15.403642 -23.639403 nan nan nan -23.066275 -6.723036 -6.027679 4.942416 -6.188052 28.877483 7.101298 4.102695 -16.908748 nan nan nan -2.627797 4.283863 3.485596 4.924466 -3.686727 9.835306 0.453652 -0.298231 -6.525314 2.977228 33.132069 6.296617 -9.976005 21.880262 6.973173 -1.333459 -2.796362 -0.764293 -38.943560 -13.137744 8.146323 132.884432 -69.154415 -111.473422 0.830439 -8.649124 -29.316115 10.198419 22.130905 -2.060882 62.097062 41.922294 33.373789 -175.861090 66.851044 -163.291850 -5.913756 10.388984 -27.933003 
-100.877968 222.153488 92.505127 123.383459 4.032761 86.863469 20.376611 13.312677 -10.475143 -5.459380 17.148416 39.972036 6.231841 15.331531 -23.489089 nan nan nan -23.112683 -6.372699 -6.434522 4.961661 -5.386036 28.728183 7.148731 4.203955 -17.239692 nan nan nan -2.443375 4.299499 3.263708 4.771974 -3.617162 9.942139 0.360621 -0.023259 -6.687579 3.368089 33.187004 6.955988 -9.887960 21.759401 7.105142 -1.198831 -3.134634 -1.189823 -38.971950 -12.619304 8.023368 127.959028 -69.316410 -105.045378 -0.279810 -8.769284 -30.216219 10.129831 22.310905 -2.365673 62.292087 41.509443 33.610071 -174.423815 66.995979 -160.969738 -5.990831 10.044275 -28.262510 
-100.742928 221.945114 92.486702 123.232965 4.048018 86.889444 20.530809 13.399906 -10.470256 -5.426962 17.003398 39.973385 6.162382 15.352122 -23.386415 nan nan nan -23.322507 -6.188540 -6.566357 4.814087 -4.866448 28.391647 7.144378 3.986135 -17.378759 nan nan nan -2.311047 4.346994 3.292424 4.629345 -3.556224 9.970729 0.313994 0.010635 -6.710234 3.284219 33.093943 6.864584 -9.811361 21.975174 7.146481 -1.438354 -3.131978 -1.514989 -38.848554 -12.472806 7.980918 123.525157 -68.640082 -99.815883 -0.820270 -8.732120 -30.439791 9.951028 22.057870 -2.798073 62.965677 41.683309 34.433548 -173.417228 67.404050 -159.219830 -6.475046 9.594666 -28.391537 
-100.575890 221.788864 92.471252 123.054251 4.029125 86.780701 20.721664 13.422273 -10.222817 -5.443457 16.914428 39.869822 6.059478 15.321654 -23.373142 nan nan nan -23.602789 -6.012223 -6.508531 4.423178 -4.786442 27.980084 7.110210 3.546897 -17.396761 nan nan nan -2.229974 4.233529 3.662654 4.548038 -3.393013 9.779012 0.290608 -0.150794 -6.542916 3.456569 33.352321 6.694111 -10.194813 22.102736 7.013451 -1.612182 -2.427523 -2.167895 -39.754413 -12.766487 7.239261 120.043949 -68.292842 -95.393520 -1.364757 -9.602285 -30.188400 9.677771 21.697910 -3.101689 63.931976 42.462024 35.144015 -173.147462 68.165372 -158.021034 -5.774275 9.909306 -27.954323 
-100.422890 221.578766 92.453262 122.878499 3.920951 86.818934 20.748953 13.448061 -10.200529 -5.595974 16.651022 39.765529 6.027190 15.525097 -23.155601 nan nan nan -23.931233 -6.086942 -6.643602 3.941304 -4.677902 27.513403 7.014424 2.690195 -17.349294 nan nan nan -2.343466 4.109924 3.783160 4.460699 -3.404983 9.690202 0.144242 -0.013364 -6.533400 3.600666 33.203894 6.694452 -10.092317 22.506114 7.076011 -1.735661 -2.128640 -2.087340 -38.471799 -12.654858 6.216414 119.371453 -68.160133 -94.315693 -1.035468 -8.787157 -29.520110 9.925373 21.446034 -2.876366 64.087686 43.368548 35.192209 -174.413357 68.985325 -157.543463 -6.749521 9.454931 -24.673650 
